<svg width="121" height="37" viewBox="0 0 121 37" fill="none" xmlns="http://www.w3.org/2000/svg">
<g filter="url(#filter0_d)">
<path d="M28.3225 4.02C29.0318 4.02 29.6018 4.248 30.0325 4.704C30.4632 5.13467 30.6785 5.71733 30.6785 6.452V28.948C30.6785 29.6573 30.4758 30.2147 30.0705 30.62C29.6652 31.0253 29.1332 31.228 28.4745 31.228C27.8158 31.228 27.2965 31.0253 26.9165 30.62C26.5365 30.2147 26.3465 29.6573 26.3465 28.948V13.292L19.8865 25.528C19.5825 26.0853 19.2532 26.5033 18.8985 26.782C18.5438 27.0353 18.1258 27.162 17.6445 27.162C17.1632 27.162 16.7452 27.0353 16.3905 26.782C16.0358 26.5287 15.7065 26.1107 15.4025 25.528L8.90448 13.482V28.948C8.90448 29.632 8.70182 30.1893 8.29648 30.62C7.91648 31.0253 7.39715 31.228 6.73848 31.228C6.07982 31.228 5.56048 31.0253 5.18048 30.62C4.80048 30.2147 4.61048 29.6573 4.61048 28.948V6.452C4.61048 5.71733 4.81315 5.13467 5.21848 4.704C5.64915 4.248 6.21915 4.02 6.92848 4.02C7.91648 4.02 8.68915 4.56466 9.24648 5.654L17.6825 21.728L26.0805 5.654C26.6378 4.56466 27.3852 4.02 28.3225 4.02ZM48.4177 31.342C45.8083 31.342 43.541 30.7847 41.6157 29.67C39.7157 28.5553 38.2463 26.9593 37.2077 24.882C36.169 22.8047 35.6497 20.3727 35.6497 17.586C35.6497 14.7993 36.1563 12.38 37.1697 10.328C38.2083 8.25067 39.6903 6.65467 41.6157 5.54C43.541 4.42533 45.8083 3.868 48.4177 3.868C51.027 3.868 53.2817 4.42533 55.1817 5.54C57.107 6.65467 58.5763 8.25067 59.5897 10.328C60.6283 12.38 61.1477 14.7993 61.1477 17.586C61.1477 20.3727 60.6283 22.8047 59.5897 24.882C58.551 26.9593 57.069 28.5553 55.1437 29.67C53.2437 30.7847 51.0017 31.342 48.4177 31.342ZM48.4177 27.428C50.875 27.428 52.7877 26.5793 54.1557 24.882C55.549 23.1847 56.2457 20.7527 56.2457 17.586C56.2457 14.4193 55.549 12 54.1557 10.328C52.7877 8.63067 50.875 7.782 48.4177 7.782C45.935 7.782 43.997 8.63067 42.6037 10.328C41.2357 12 40.5517 14.4193 40.5517 17.586C40.5517 20.7527 41.2357 23.1847 42.6037 24.882C43.997 26.5793 45.935 27.428 48.4177 27.428ZM68.4169 31C67.6823 31 67.1123 30.7973 66.7069 30.392C66.3016 29.9867 66.0989 29.4293 66.0989 28.72V6.452C66.0989 5.71733 66.3143 5.13467 66.7449 4.704C67.2009 4.248 67.7963 4.02 68.5309 4.02C69.2909 4.02 69.8863 4.248 70.3169 4.704C70.7729 5.13467 71.0009 5.71733 71.0009 6.452V26.972H81.6789C83.1989 26.972 83.9589 27.6433 83.9589 28.986C83.9589 30.3287 83.1989 31 81.6789 31H68.4169ZM89.6091 31.228C88.8744 31.228 88.2791 31 87.8231 30.544C87.3924 30.088 87.1771 29.4927 87.1771 28.758V6.452C87.1771 5.71733 87.3924 5.13467 87.8231 4.704C88.2791 4.248 88.8744 4.02 89.6091 4.02C90.3691 4.02 90.9644 4.248 91.3951 4.704C91.8511 5.13467 92.0791 5.71733 92.0791 6.452V28.758C92.0791 29.4927 91.8511 30.088 91.3951 30.544C90.9644 31 90.3691 31.228 89.6091 31.228ZM100.221 31C99.4859 31 98.9032 30.7973 98.4726 30.392C98.0672 29.9867 97.8646 29.4167 97.8646 28.682V6.528C97.8646 5.79333 98.0672 5.22333 98.4726 4.818C98.9032 4.41267 99.4859 4.21 100.221 4.21H113.939C114.673 4.21 115.243 4.37467 115.649 4.704C116.054 5.03333 116.257 5.502 116.257 6.11C116.257 6.74333 116.054 7.23733 115.649 7.592C115.243 7.92133 114.673 8.086 113.939 8.086H102.653V15.458H113.179C113.913 15.458 114.483 15.6227 114.889 15.952C115.294 16.2813 115.497 16.7627 115.497 17.396C115.497 18.004 115.294 18.4727 114.889 18.802C114.483 19.1313 113.913 19.296 113.179 19.296H102.653V27.124H113.939C114.673 27.124 115.243 27.3013 115.649 27.656C116.054 27.9853 116.257 28.4667 116.257 29.1C116.257 29.708 116.054 30.1767 115.649 30.506C115.243 30.8353 114.673 31 113.939 31H100.221Z" fill="#6277D7"/>
<path d="M30.0325 4.704L29.3055 5.39062L29.3153 5.40101L29.3254 5.41111L30.0325 4.704ZM30.0705 30.62L29.3634 29.9129V29.9129L30.0705 30.62ZM26.9165 30.62L27.646 29.9361L26.9165 30.62ZM26.3465 13.292H27.3465L25.4622 12.8251L26.3465 13.292ZM19.8865 25.528L20.7645 26.0069L20.7708 25.9949L19.8865 25.528ZM18.8985 26.782L19.4797 27.5957L19.4983 27.5824L19.5163 27.5683L18.8985 26.782ZM16.3905 26.782L16.9717 25.9683L16.3905 26.782ZM15.4025 25.528L16.2892 25.0654L16.2826 25.0532L15.4025 25.528ZM8.90449 13.482L9.7846 13.0072L7.90449 13.482H8.90449ZM8.29649 30.62L7.56828 29.9346L7.56695 29.9361L8.29649 30.62ZM5.18048 30.62L5.91002 29.9361L5.18048 30.62ZM5.21848 4.704L4.49147 4.01737L4.49029 4.01863L5.21848 4.704ZM9.24648 5.654L8.35619 6.1095L8.36102 6.11871L9.24648 5.654ZM17.6825 21.728L16.797 22.1927L17.6845 23.8837L18.5688 22.1911L17.6825 21.728ZM26.0805 5.654L26.9668 6.11708L26.9707 6.10947L26.0805 5.654ZM28.3225 5.02C28.7963 5.02 29.0893 5.16173 29.3055 5.39062L30.7595 4.01737C30.1143 3.33427 29.2673 3.02 28.3225 3.02V5.02ZM29.3254 5.41111C29.5309 5.6166 29.6785 5.9241 29.6785 6.452H31.6785C31.6785 5.51056 31.3954 4.65273 30.7396 3.99689L29.3254 5.41111ZM29.6785 6.452V28.948H31.6785V6.452H29.6785ZM29.6785 28.948C29.6785 29.4589 29.5387 29.7375 29.3634 29.9129L30.7776 31.3271C31.4129 30.6918 31.6785 29.8558 31.6785 28.948H29.6785ZM29.3634 29.9129C29.1739 30.1024 28.9108 30.228 28.4745 30.228V32.228C29.3555 32.228 30.1564 31.9483 30.7776 31.3271L29.3634 29.9129ZM28.4745 30.228C28.0366 30.228 27.802 30.1024 27.646 29.9361L26.187 31.3039C26.791 31.9482 27.5951 32.228 28.4745 32.228V30.228ZM27.646 29.9361C27.484 29.7632 27.3465 29.4763 27.3465 28.948H25.3465C25.3465 29.8384 25.589 30.6661 26.187 31.3039L27.646 29.9361ZM27.3465 28.948V13.292H25.3465V28.948H27.3465ZM25.4622 12.8251L19.0022 25.0611L20.7708 25.9949L27.2308 13.7589L25.4622 12.8251ZM19.0086 25.0491C18.7449 25.5325 18.4946 25.8276 18.2807 25.9957L19.5163 27.5683C20.0117 27.1791 20.42 26.6382 20.7644 26.0069L19.0086 25.0491ZM18.3172 25.9683C18.1498 26.0878 17.9402 26.162 17.6445 26.162V28.162C18.3114 28.162 18.9378 27.9828 19.4797 27.5957L18.3172 25.9683ZM17.6445 26.162C17.3488 26.162 17.1391 26.0878 16.9717 25.9683L15.8092 27.5957C16.3512 27.9828 16.9775 28.162 17.6445 28.162V26.162ZM16.9717 25.9683C16.7936 25.841 16.5541 25.5734 16.2891 25.0654L14.5159 25.9906C14.8589 26.6479 15.2781 27.2163 15.8092 27.5957L16.9717 25.9683ZM16.2826 25.0532L9.7846 13.0072L8.02437 13.9568L14.5224 26.0028L16.2826 25.0532ZM7.90449 13.482V28.948H9.90449V13.482H7.90449ZM7.90449 28.948C7.90449 29.42 7.77177 29.7184 7.56828 29.9346L9.02468 31.3054C9.63187 30.6602 9.90449 29.844 9.90449 28.948H7.90449ZM7.56695 29.9361C7.41096 30.1024 7.17641 30.228 6.73849 30.228V32.228C7.6179 32.228 8.422 31.9482 9.02602 31.3039L7.56695 29.9361ZM6.73849 30.228C6.30057 30.228 6.066 30.1024 5.91002 29.9361L4.45095 31.3039C5.05496 31.9482 5.85907 32.228 6.73849 32.228V30.228ZM5.91002 29.9361C5.748 29.7632 5.61048 29.4763 5.61048 28.948H3.61048C3.61048 29.8384 3.85297 30.6661 4.45095 31.3039L5.91002 29.9361ZM5.61048 28.948V6.452H3.61048V28.948H5.61048ZM5.61048 6.452C5.61048 5.90736 5.75574 5.59224 5.94669 5.38936L4.49029 4.01863C3.87056 4.67709 3.61048 5.52731 3.61048 6.452H5.61048ZM5.9455 5.39062C6.16167 5.16173 6.45467 5.02 6.92848 5.02V3.02C5.98363 3.02 5.13663 3.33427 4.49147 4.01737L5.9455 5.39062ZM6.92848 5.02C7.44482 5.02 7.92115 5.25908 8.35624 6.10947L10.1367 5.19852C9.45715 3.87025 8.38815 3.02 6.92848 3.02V5.02ZM8.36102 6.11871L16.797 22.1927L18.5679 21.2633L10.132 5.18929L8.36102 6.11871ZM18.5688 22.1911L26.9668 6.11707L25.1942 5.19093L16.7962 21.2649L18.5688 22.1911ZM26.9707 6.10947C27.4184 5.23456 27.8785 5.02 28.3225 5.02V3.02C26.8918 3.02 25.8573 3.89477 25.1902 5.19852L26.9707 6.10947ZM41.6157 29.67L41.1096 30.5325L41.1146 30.5354L41.6157 29.67ZM37.2077 24.882L38.1021 24.4348L37.2077 24.882ZM37.1697 10.328L36.2752 9.88078L36.273 9.88522L37.1697 10.328ZM41.6157 5.54L42.1167 6.40543V6.40543L41.6157 5.54ZM55.1817 5.54L54.6756 6.40254L54.6806 6.40543L55.1817 5.54ZM59.5897 10.328L58.6909 10.7664L58.6941 10.773L58.6974 10.7796L59.5897 10.328ZM59.5897 24.882L58.6952 24.4348V24.4348L59.5897 24.882ZM55.1437 29.67L54.6426 28.8046L54.6376 28.8075L55.1437 29.67ZM54.1557 24.882L53.3827 24.2475L53.3771 24.2545L54.1557 24.882ZM54.1557 10.328L53.3771 10.9555L53.3822 10.9619L53.3874 10.9682L54.1557 10.328ZM42.6037 10.328L41.8307 9.6935L41.8297 9.69476L42.6037 10.328ZM42.6037 24.882L41.825 25.5096L41.8307 25.5165L42.6037 24.882ZM48.4177 30.342C45.9536 30.342 43.8652 29.8169 42.1167 28.8046L41.1146 30.5354C43.2167 31.7524 45.6631 32.342 48.4177 32.342V30.342ZM42.1217 28.8075C40.3979 27.7962 39.0591 26.3489 38.1021 24.4348L36.3132 25.3292C37.4335 27.5698 39.0334 29.3145 41.1096 30.5325L42.1217 28.8075ZM38.1021 24.4348C37.1454 22.5214 36.6497 20.2481 36.6497 17.586H34.6497C34.6497 20.4972 35.1926 23.0879 36.3132 25.3292L38.1021 24.4348ZM36.6497 17.586C36.6497 14.92 37.1342 12.6583 38.0663 10.7708L36.273 9.88522C35.1785 12.1017 34.6497 14.6787 34.6497 17.586H36.6497ZM38.0641 10.7752C39.0194 8.86463 40.3682 7.41769 42.1167 6.40543L41.1146 4.67457C39.0124 5.89164 37.3973 7.6367 36.2752 9.88078L38.0641 10.7752ZM42.1167 6.40543C43.8652 5.3931 45.9536 4.868 48.4177 4.868V2.868C45.6631 2.868 43.2167 3.45756 41.1146 4.67457L42.1167 6.40543ZM48.4177 4.868C50.8821 4.868 52.9553 5.39324 54.6756 6.40252L55.6877 4.67747C53.608 3.45743 51.1718 2.868 48.4177 2.868V4.868ZM54.6806 6.40543C56.4269 7.41644 57.7611 8.86044 58.6909 10.7664L60.4884 9.88958C59.3915 7.64089 57.7871 5.89289 55.6827 4.67457L54.6806 6.40543ZM58.6974 10.7796C59.6518 12.665 60.1477 14.9234 60.1477 17.586H62.1477C62.1477 14.6752 61.6049 12.095 60.4819 9.87638L58.6974 10.7796ZM60.1477 17.586C60.1477 20.2481 59.6519 22.5214 58.6952 24.4348L60.4841 25.3292C61.6047 23.0879 62.1477 20.4972 62.1477 17.586H60.1477ZM58.6952 24.4348C57.7399 26.3454 56.3911 27.7923 54.6426 28.8046L55.6447 30.5354C57.7469 29.3184 59.362 27.5733 60.4841 25.3292L58.6952 24.4348ZM54.6376 28.8075C52.9158 29.8176 50.8548 30.342 48.4177 30.342V32.342C51.1485 32.342 53.5715 31.7517 55.6497 30.5325L54.6376 28.8075ZM48.4177 28.428C51.134 28.428 53.3507 27.4743 54.9342 25.5095L53.3771 24.2545C52.2246 25.6843 50.616 26.428 48.4177 26.428V28.428ZM54.9286 25.5165C56.5216 23.5759 57.2457 20.8842 57.2457 17.586H55.2457C55.2457 20.6211 54.5764 22.7934 53.3827 24.2475L54.9286 25.5165ZM57.2457 17.586C57.2457 14.2891 56.5221 11.6057 54.9239 9.68781L53.3874 10.9682C54.5759 12.3943 55.2457 14.5496 55.2457 17.586H57.2457ZM54.9342 9.70047C53.3507 7.73568 51.134 6.782 48.4177 6.782V8.782C50.616 8.782 52.2246 9.52565 53.3771 10.9555L54.9342 9.70047ZM48.4177 6.782C45.6797 6.782 43.4403 7.73278 41.8307 9.69351L43.3766 10.9625C44.5537 9.52855 46.1903 8.782 48.4177 8.782V6.782ZM41.8297 9.69476C40.2609 11.6122 39.5517 14.2927 39.5517 17.586H41.5517C41.5517 14.5459 42.2104 12.3878 43.3776 10.9612L41.8297 9.69476ZM39.5517 17.586C39.5517 20.8807 40.2615 23.5695 41.8251 25.5095L43.3822 24.2545C42.2099 22.7998 41.5517 20.6247 41.5517 17.586H39.5517ZM41.8307 25.5165C43.4403 27.4772 45.6797 28.428 48.4177 28.428V26.428C46.1903 26.428 44.5537 25.6814 43.3766 24.2475L41.8307 25.5165ZM66.7069 30.392L67.414 29.6849L66.7069 30.392ZM66.7449 4.704L66.0378 3.99689V3.99689L66.7449 4.704ZM70.3169 4.704L69.5899 5.39062L69.6095 5.41139L69.6303 5.43101L70.3169 4.704ZM71.0009 26.972H70.0009V27.972H71.0009V26.972ZM68.4169 30C67.8692 30 67.5829 29.8538 67.414 29.6849L65.9998 31.0991C66.6416 31.7409 67.4953 32 68.4169 32V30ZM67.414 29.6849C67.2387 29.5095 67.0989 29.2309 67.0989 28.72H65.0989C65.0989 29.6278 65.3645 30.4638 65.9998 31.0991L67.414 29.6849ZM67.0989 28.72V6.452H65.0989V28.72H67.0989ZM67.0989 6.452C67.0989 5.9241 67.2466 5.6166 67.452 5.41111L66.0378 3.99689C65.382 4.65274 65.0989 5.51056 65.0989 6.452H67.0989ZM67.452 5.41111C67.6939 5.16925 68.0213 5.02 68.5309 5.02V3.02C67.5712 3.02 66.708 3.32675 66.0378 3.99689L67.452 5.41111ZM68.5309 5.02C69.0785 5.02 69.3873 5.17607 69.5899 5.39062L71.0439 4.01737C70.3852 3.31992 69.5034 3.02 68.5309 3.02V5.02ZM69.6303 5.43101C69.8518 5.64022 70.0009 5.94117 70.0009 6.452H72.0009C72.0009 5.4935 71.694 4.62911 71.0036 3.97699L69.6303 5.43101ZM70.0009 6.452V26.972H72.0009V6.452H70.0009ZM71.0009 27.972H81.6789V25.972H71.0009V27.972ZM81.6789 27.972C82.3132 27.972 82.6021 28.1148 82.7269 28.225C82.828 28.3143 82.9589 28.5032 82.9589 28.986H84.9589C84.9589 28.1261 84.7099 27.308 84.051 26.726C83.4157 26.1649 82.5647 25.972 81.6789 25.972V27.972ZM82.9589 28.986C82.9589 29.4688 82.828 29.6577 82.7269 29.747C82.6021 29.8572 82.3132 30 81.6789 30V32C82.5647 32 83.4157 31.8071 84.051 31.246C84.7099 30.664 84.9589 29.8459 84.9589 28.986H82.9589ZM81.6789 30H68.4169V32H81.6789V30ZM87.8231 30.544L87.0961 31.2306L87.1059 31.241L87.116 31.2511L87.8231 30.544ZM87.8231 4.704L87.116 3.99689V3.99689L87.8231 4.704ZM91.3951 4.704L90.668 5.39062L90.6877 5.41139L90.7084 5.43101L91.3951 4.704ZM91.3951 30.544L90.688 29.8369L90.6779 29.847L90.668 29.8574L91.3951 30.544ZM89.6091 30.228C89.0995 30.228 88.772 30.0788 88.5302 29.8369L87.116 31.2511C87.7861 31.9212 88.6493 32.228 89.6091 32.228V30.228ZM88.5501 29.8574C88.3244 29.6184 88.1771 29.2841 88.1771 28.758H86.1771C86.1771 29.7012 86.4604 30.5576 87.0961 31.2306L88.5501 29.8574ZM88.1771 28.758V6.452H86.1771V28.758H88.1771ZM88.1771 6.452C88.1771 5.9241 88.3247 5.6166 88.5302 5.41111L87.116 3.99689C86.4601 4.65274 86.1771 5.51056 86.1771 6.452H88.1771ZM88.5302 5.41111C88.772 5.16925 89.0995 5.02 89.6091 5.02V3.02C88.6493 3.02 87.7861 3.32675 87.116 3.99689L88.5302 5.41111ZM89.6091 5.02C90.1566 5.02 90.4654 5.17607 90.668 5.39062L92.1221 4.01737C91.4634 3.31992 90.5815 3.02 89.6091 3.02V5.02ZM90.7084 5.43101C90.93 5.64022 91.0791 5.94117 91.0791 6.452H93.0791C93.0791 5.4935 92.7722 4.62911 92.0817 3.97699L90.7084 5.43101ZM91.0791 6.452V28.758H93.0791V6.452H91.0791ZM91.0791 28.758C91.0791 29.2676 90.9298 29.595 90.688 29.8369L92.1022 31.2511C92.7723 30.581 93.0791 29.7177 93.0791 28.758H91.0791ZM90.668 29.8574C90.4654 30.0719 90.1566 30.228 89.6091 30.228V32.228C90.5815 32.228 91.4634 31.9281 92.1221 31.2306L90.668 29.8574ZM98.4726 30.392L97.7655 31.0991L97.7762 31.1098L97.7872 31.1202L98.4726 30.392ZM98.4726 4.818L97.7872 4.0898L97.7762 4.10018L97.7655 4.11089L98.4726 4.818ZM115.649 4.704L116.279 3.92789V3.92788L115.649 4.704ZM115.649 7.592L116.279 8.36811L116.293 8.3566L116.307 8.34457L115.649 7.592ZM102.653 8.086V7.086H101.653V8.086H102.653ZM102.653 15.458H101.653V16.458H102.653V15.458ZM114.889 15.952L115.519 15.1759L115.519 15.1759L114.889 15.952ZM114.889 18.802L115.519 19.5781L115.519 19.5781L114.889 18.802ZM102.653 19.296V18.296H101.653V19.296H102.653ZM102.653 27.124H101.653V28.124H102.653V27.124ZM115.649 27.656L114.99 28.4086L115.004 28.4206L115.018 28.4321L115.649 27.656ZM115.649 30.506L116.279 31.2821V31.2821L115.649 30.506ZM100.221 30C99.6759 30 99.3608 29.8547 99.1579 29.6638L97.7872 31.1202C98.4456 31.7399 99.2959 32 100.221 32V30ZM99.1797 29.6849C99.0108 29.516 98.8646 29.2297 98.8646 28.682H96.8646C96.8646 29.6036 97.1237 30.4573 97.7655 31.0991L99.1797 29.6849ZM98.8646 28.682V6.528H96.8646V28.682H98.8646ZM98.8646 6.528C98.8646 5.98031 99.0108 5.69401 99.1797 5.52511L97.7655 4.11089C97.1237 4.75266 96.8646 5.60635 96.8646 6.528H98.8646ZM99.1579 5.5462C99.3608 5.35526 99.6759 5.21 100.221 5.21V3.21C99.2959 3.21 98.4456 3.47007 97.7872 4.0898L99.1579 5.5462ZM100.221 5.21H113.939V3.21H100.221V5.21ZM113.939 5.21C114.535 5.21 114.851 5.34453 115.018 5.48011L116.279 3.92788C115.635 3.4048 114.811 3.21 113.939 3.21V5.21ZM115.018 5.48011C115.15 5.58723 115.257 5.74782 115.257 6.11H117.257C117.257 5.25617 116.958 4.47943 116.279 3.92789L115.018 5.48011ZM115.257 6.11C115.257 6.51081 115.14 6.70856 114.99 6.83942L116.307 8.34457C116.968 7.7661 117.257 6.97585 117.257 6.11H115.257ZM115.018 6.81588C114.851 6.95147 114.535 7.086 113.939 7.086V9.086C114.811 9.086 115.635 8.8912 116.279 8.36811L115.018 6.81588ZM113.939 7.086H102.653V9.086H113.939V7.086ZM101.653 8.086V15.458H103.653V8.086H101.653ZM102.653 16.458H113.179V14.458H102.653V16.458ZM113.179 16.458C113.775 16.458 114.091 16.5925 114.258 16.7281L115.519 15.1759C114.875 14.6528 114.051 14.458 113.179 14.458V16.458ZM114.258 16.7281C114.38 16.827 114.497 16.9931 114.497 17.396H116.497C116.497 16.5323 116.208 15.7356 115.519 15.1759L114.258 16.7281ZM114.497 17.396C114.497 17.7582 114.39 17.9188 114.258 18.0259L115.519 19.5781C116.198 19.0266 116.497 18.2498 116.497 17.396H114.497ZM114.258 18.0259C114.091 18.1615 113.775 18.296 113.179 18.296V20.296C114.051 20.296 114.875 20.1012 115.519 19.5781L114.258 18.0259ZM113.179 18.296H102.653V20.296H113.179V18.296ZM101.653 19.296V27.124H103.653V19.296H101.653ZM102.653 28.124H113.939V26.124H102.653V28.124ZM113.939 28.124C114.52 28.124 114.824 28.2634 114.99 28.4086L116.307 26.9034C115.662 26.3392 114.827 26.124 113.939 26.124V28.124ZM115.018 28.4321C115.14 28.531 115.257 28.6971 115.257 29.1H117.257C117.257 28.2363 116.968 27.4396 116.279 26.8799L115.018 28.4321ZM115.257 29.1C115.257 29.4622 115.15 29.6228 115.018 29.7299L116.279 31.2821C116.958 30.7306 117.257 29.9538 117.257 29.1H115.257ZM115.018 29.7299C114.851 29.8655 114.535 30 113.939 30V32C114.811 32 115.635 31.8052 116.279 31.2821L115.018 29.7299ZM113.939 30H100.221V32H113.939V30Z" fill="black"/>
</g>
<defs>
<filter id="filter0_d" x="0.610481" y="0.867996" width="119.646" height="35.474" filterUnits="userSpaceOnUse" color-interpolation-filters="sRGB">
<feFlood flood-opacity="0" result="BackgroundImageFix"/>
<feColorMatrix in="SourceAlpha" type="matrix" values="0 0 0 0 0 0 0 0 0 0 0 0 0 0 0 0 0 0 127 0"/>
<feOffset dy="1"/>
<feGaussianBlur stdDeviation="1.5"/>
<feColorMatrix type="matrix" values="0 0 0 0 0 0 0 0 0 0 0 0 0 0 0 0 0 0 0.25 0"/>
<feBlend mode="normal" in2="BackgroundImageFix" result="effect1_dropShadow"/>
<feBlend mode="normal" in="SourceGraphic" in2="effect1_dropShadow" result="shape"/>
</filter>
</defs>
</svg>
