<svg width="89" height="89" viewBox="0 0 89 89" fill="none" xmlns="http://www.w3.org/2000/svg">
<g clip-path="url(#clip0)">
<path d="M43.2315 60.6213L33.7145 64.232C30.9659 65.2747 28.3071 62.516 29.4509 59.8077L32.0303 53.7C32.5455 52.4798 32.2915 51.0704 31.3828 50.107L25.2686 43.6256C23.5129 41.7644 24.4148 38.7013 26.8988 38.0883L35.7108 35.9138C36.7046 35.6686 37.5313 34.9813 37.9538 34.0489L41.3735 26.5029C42.5592 23.8866 46.2751 23.8866 47.4607 26.5029L50.8804 34.0489C51.3029 34.9812 52.1296 35.6685 53.1234 35.9138L61.9354 38.0883C64.4194 38.7013 65.3212 41.7644 63.5656 43.6256L57.4514 50.107C56.5426 51.0704 56.2885 52.4798 56.8039 53.7L59.3833 59.8077C60.5269 62.516 57.8682 65.2747 55.1197 64.232L45.6027 60.6213C44.8386 60.3315 43.9952 60.3315 43.2315 60.6213V60.6213Z" fill="#FEE97D"/>
<path d="M41.622 56.539C42.1372 55.3187 41.8833 53.9094 40.9744 52.946L34.8602 46.4646C33.1045 44.6034 34.0064 41.5402 36.4905 40.9273L45.3024 38.753C46.2964 38.5078 47.123 37.8205 47.5455 36.888L49.8562 31.7893L47.4605 26.5033C46.2749 23.8869 42.559 23.8869 41.3733 26.5033L37.9536 34.0492C37.5311 34.9815 36.7044 35.6688 35.7106 35.9142L26.8986 38.0886C24.4146 38.7016 23.5128 41.7646 25.2684 43.6258L31.3826 50.1072C32.2915 51.0706 32.5455 52.4799 32.0301 53.7002L29.4507 59.8077C28.3071 62.516 30.9658 65.2747 33.7143 64.232L39.2619 62.1273L41.622 56.539Z" fill="#FEE45A"/>
<path d="M11.8638 60.6643L6.53973 62.6842C5.00207 63.2675 3.51477 61.7243 4.15449 60.2092L5.59734 56.7925C5.8856 56.1099 5.74355 55.3215 5.23511 54.7825L1.81475 51.1567C0.832593 50.1155 1.33704 48.402 2.72675 48.059L7.65629 46.8426C8.21232 46.7054 8.67474 46.3209 8.91108 45.7993L10.8242 41.5781C11.4875 40.1144 13.5663 40.1144 14.2294 41.5781L16.1425 45.7993C16.3788 46.3209 16.8413 46.7054 17.3973 46.8426L22.3268 48.059C23.7165 48.402 24.221 50.1155 23.2388 51.1567L19.8185 54.7825C19.31 55.3215 19.168 56.1099 19.4562 56.7925L20.8991 60.2092C21.5388 61.7243 20.0515 63.2677 18.5139 62.6842L13.1898 60.6643C12.7628 60.5023 12.2912 60.5023 11.8638 60.6643Z" fill="#FEE97D"/>
<path d="M8.81749 61.7772L10.2603 58.3604C10.5486 57.6778 10.4066 56.8894 9.89811 56.3504L6.47775 52.7246C5.49559 51.6834 6.00004 49.9698 7.38975 49.6271L12.3193 48.4106C12.8753 48.2735 13.3377 47.889 13.5741 47.3674L15.2137 43.7494L14.2296 41.5781C13.5663 40.1146 11.4875 40.1146 10.8243 41.5781L8.91126 45.7995C8.67493 46.3211 8.2125 46.7056 7.65648 46.8428L2.72694 48.0592C1.33723 48.4021 0.832776 50.1157 1.81493 51.1567L5.23529 54.7825C5.74374 55.3215 5.88578 56.1099 5.59752 56.7925L4.15468 60.2092C3.51495 61.7243 5.00226 63.2677 6.53991 62.6842L8.79839 61.8273C8.80499 61.8108 8.81037 61.7939 8.81749 61.7772V61.7772Z" fill="#FEE45A"/>
<path d="M77.1436 60.6643L82.4677 62.6842C84.0053 63.2675 85.4926 61.7243 84.8529 60.2092L83.4101 56.7925C83.1218 56.1099 83.2638 55.3215 83.7723 54.7825L87.1926 51.1567C88.1748 50.1155 87.6703 48.402 86.2806 48.059L81.3511 46.8426C80.7951 46.7054 80.3326 46.3209 80.0963 45.7993L78.1832 41.5781C77.5199 40.1144 75.4411 40.1144 74.778 41.5781L72.8649 45.7993C72.6285 46.3209 72.1661 46.7054 71.6101 46.8426L66.6806 48.059C65.2908 48.402 64.7864 50.1155 65.7685 51.1567L69.1889 54.7825C69.6973 55.3215 69.8394 56.1099 69.5511 56.7925L68.1083 60.2092C67.4686 61.7243 68.9559 63.2677 70.4935 62.6842L75.8176 60.6643C76.2446 60.5023 76.7164 60.5023 77.1436 60.6643V60.6643Z" fill="#FEE97D"/>
<path d="M82.2846 62.5813C82.1771 62.5405 82.0667 62.5101 81.9548 62.4897L82.4676 62.6842C82.5796 62.7268 82.6911 62.7566 82.8017 62.7775L82.2846 62.5813Z" fill="#FEE45A"/>
<path d="M74.6922 58.7094C74.9804 58.0268 74.8384 57.2384 74.3299 56.6994L70.9096 53.0736C69.9274 52.0324 70.4319 50.3189 71.8216 49.9759L76.7511 48.7595C77.3072 48.6223 77.7696 48.2379 78.0059 47.7162L79.4854 44.4515L78.1832 41.5779C77.5199 40.1144 75.4411 40.1144 74.778 41.5779L72.8649 45.7993C72.6285 46.321 72.1661 46.7054 71.6101 46.8426L66.6806 48.059C65.2908 48.402 64.7864 50.1155 65.7685 51.1566L69.1889 54.7823C69.6973 55.3213 69.8394 56.1097 69.5511 56.7923L68.1083 60.209C67.4686 61.7241 68.9559 63.2675 70.4935 62.6841L73.4945 61.5454L74.6922 58.7094Z" fill="#FEE45A"/>
<path d="M58.0035 53.1934C57.6892 52.449 57.8444 51.5884 58.3987 51.0006L64.5129 44.5194C65.6588 43.3045 66.0613 41.6229 65.5895 40.0212C65.1179 38.4192 63.8685 37.2242 62.2473 36.8241L53.4355 34.6499C52.8249 34.4991 52.3259 34.0843 52.0665 33.5118L48.6468 25.9659C47.8845 24.2837 46.2636 23.2389 44.417 23.2389C42.5703 23.2389 40.9495 24.2839 40.1873 25.9659L36.7676 33.5116C36.508 34.0843 36.0091 34.4991 35.3988 34.6499L26.5868 36.8241C24.9656 37.2242 23.716 38.4194 23.2444 40.0212C22.7728 41.6229 23.1753 43.3045 24.3212 44.5194L30.4352 51.0006C30.9897 51.5884 31.1447 52.449 30.8304 53.1933L28.251 59.301C27.5158 61.0422 27.8737 62.9693 29.1853 64.3302C30.0872 65.2662 31.2732 65.7613 32.5006 65.7611C33.058 65.7611 33.6243 65.659 34.1761 65.4496L35.0984 65.0998C35.7709 64.8448 36.1093 64.0929 35.8544 63.4203C35.5995 62.7478 34.8474 62.4092 34.1749 62.6643L33.2525 63.0141C32.4645 63.3127 31.6455 63.1291 31.0608 62.5226C30.4762 61.916 30.3228 61.0905 30.6505 60.3143L33.2299 54.2063C33.9457 52.5115 33.5923 50.5516 32.3299 49.2131L26.2159 42.7318C25.7128 42.1984 25.5359 41.46 25.743 40.7566C25.9502 40.0531 26.4989 39.5283 27.2107 39.3526L36.0229 37.1784C37.4128 36.835 38.5489 35.8906 39.1399 34.5866L42.5595 27.0407C42.8994 26.2911 43.5938 25.8433 44.4169 25.8433C45.24 25.8433 45.9344 26.2909 46.2742 27.0407L49.6939 34.5868C50.2848 35.8906 51.421 36.8352 52.8111 37.1784L61.623 39.3526C62.335 39.5283 62.8837 40.0531 63.0907 40.7566C63.2977 41.46 63.1211 42.1984 62.6177 42.7318L56.5035 49.2132C55.2411 50.5516 54.8879 52.5114 55.6035 54.2065L58.1829 60.3143C58.5107 61.0905 58.3574 61.916 57.7727 62.5226C57.1882 63.1295 56.3686 63.3132 55.5811 63.014L46.0638 59.4033C45.0015 59.0004 43.8317 59.0004 42.7693 59.4033L39.3765 60.6904C38.704 60.9456 38.3657 61.6975 38.6208 62.3701C38.8759 63.0425 39.6278 63.3811 40.3004 63.126L43.6929 61.8389C44.1594 61.6618 44.6734 61.6618 45.14 61.8389L54.6569 65.4494C56.424 66.1202 58.3364 65.6911 59.6483 64.3302C60.9599 62.9692 61.3176 61.042 60.5824 59.301L58.0035 53.1934Z" fill="black"/>
<path d="M22.6391 46.7947L17.7095 45.5783C17.5397 45.5364 17.4011 45.4211 17.3289 45.2619L15.4158 41.0405C14.8952 39.8916 13.7882 39.1779 12.527 39.1779C11.2658 39.1779 10.1588 39.8914 9.63817 41.0405L7.72508 45.2619C7.65285 45.4211 7.51427 45.5364 7.34444 45.5783L2.41473 46.7947C1.30755 47.0678 0.454065 47.884 0.131947 48.9781C-0.190171 50.0723 0.0848883 51.2208 0.867349 52.0503L4.28753 55.6761C4.44173 55.8395 4.48497 56.0788 4.39745 56.2858L2.95461 59.7027C2.45241 60.892 2.69691 62.2081 3.59259 63.1374C4.20852 63.7766 5.01859 64.1147 5.85697 64.1147C6.23778 64.1147 6.6245 64.0451 7.00132 63.902L12.3254 61.8821L12.3256 61.882C12.4551 61.8328 12.5978 61.8327 12.7277 61.8821L18.0518 63.902C19.2585 64.3594 20.5648 64.0668 21.4607 63.1374C22.3564 62.2079 22.6009 60.8916 22.0987 59.7027L20.6557 56.286C20.5683 56.079 20.6116 55.8395 20.7656 55.6761L24.1861 52.0503C24.9686 51.2206 25.2436 50.0719 24.9213 48.9781C24.5997 47.884 23.7463 47.0678 22.6391 46.7947ZM22.2918 50.263L18.8712 53.8889C18.0093 54.803 17.7679 56.1417 18.2567 57.2992L19.6997 60.7161C19.8263 61.016 19.6825 61.2294 19.5856 61.3299C19.4886 61.4305 19.2807 61.5823 18.9761 61.4666L13.6521 59.4469C13.2893 59.3092 12.9081 59.2404 12.527 59.2404C12.1458 59.2404 11.7645 59.3092 11.4019 59.4469L11.4021 59.4467L6.07785 61.4666C5.77397 61.5824 5.56559 61.4307 5.46852 61.3299C5.37162 61.2294 5.22784 61.0158 5.35443 60.7161L6.79728 57.2992C7.2861 56.1417 7.0449 54.803 6.18256 53.8887L2.7622 50.263C2.56772 50.0568 2.59637 49.8304 2.63075 49.7137C2.66513 49.597 2.76377 49.3914 3.03883 49.3233L7.96854 48.1069C8.91788 47.8727 9.69391 47.2276 10.0975 46.3369L12.0106 42.1155C12.1418 41.8259 12.3905 41.7826 12.527 41.7826C12.6635 41.7826 12.9121 41.8259 13.0434 42.1155L14.9565 46.3369C15.3601 47.2276 16.1361 47.8729 17.0854 48.1069L22.0152 49.3233C22.29 49.3914 22.3888 49.597 22.4232 49.7137C22.4576 49.8304 22.4861 50.057 22.2918 50.263V50.263Z" fill="black"/>
<path d="M88.1397 52.0505C89.2813 50.8403 89.2874 48.9354 88.1535 47.7131C87.6639 47.1859 86.8401 47.1552 86.3128 47.6443C85.7856 48.1335 85.7547 48.9576 86.244 49.485C86.4208 49.6755 86.4812 50.0127 86.2451 50.263L82.825 53.8887C81.9625 54.8028 81.7213 56.1415 82.2102 57.2992L83.6532 60.7161C83.7798 61.016 83.636 61.2294 83.5393 61.3299C83.4425 61.4305 83.2347 61.5826 82.9298 61.4666L77.6055 59.4465C76.8802 59.1717 76.0814 59.1713 75.3557 59.4465L70.0316 61.4666C69.7274 61.5821 69.5192 61.4305 69.4221 61.3299C69.3251 61.2294 69.1815 61.0158 69.3081 60.7161L70.7511 57.2992C71.2399 56.1417 70.9987 54.803 70.1365 53.8889L66.7158 50.263C66.5213 50.0568 66.55 49.8306 66.5842 49.7139C66.6186 49.5972 66.7174 49.3916 66.9924 49.3235L71.9215 48.1071C72.8712 47.873 73.6472 47.2279 74.0511 46.3369L75.9642 42.1155C76.0955 41.8259 76.3441 41.7826 76.4808 41.7826C76.6174 41.7826 76.8659 41.8259 76.9972 42.1155L78.9105 46.3369C79.3142 47.2281 80.0904 47.8732 81.0391 48.1069L81.4357 48.2049C82.1334 48.3778 82.8398 47.9512 83.0124 47.2529C83.1848 46.5547 82.7587 45.8488 82.0605 45.6762L81.6632 45.5781C81.4937 45.5364 81.3553 45.4211 81.283 45.2619L79.3698 41.0405C78.8494 39.8918 77.7423 39.1779 76.4811 39.1779C76.481 39.1779 76.481 39.1779 76.481 39.1779C75.2196 39.1779 74.1126 39.8914 73.592 41.0405L71.6789 45.2619C71.6066 45.4211 71.4681 45.5364 71.2982 45.5783L66.3687 46.7948C65.2613 47.068 64.408 47.8841 64.0859 48.9783C63.764 50.0723 64.0389 51.2208 64.8213 52.0503L68.2419 55.6763C68.3959 55.8395 68.4389 56.0788 68.3516 56.2858L66.9086 59.7028C66.4064 60.892 66.6511 62.2081 67.5467 63.1374C68.4426 64.067 69.7488 64.3596 70.9556 63.902L76.2795 61.882C76.4094 61.8328 76.5523 61.8328 76.6819 61.882L82.0059 63.902C82.3829 64.0449 82.7695 64.1147 83.1503 64.1147C83.9887 64.1147 84.7987 63.7766 85.4148 63.1374C86.3105 62.2079 86.5548 60.8918 86.0528 59.7027L84.6098 56.2858C84.5225 56.079 84.5655 55.8399 84.7199 55.6763L88.1397 52.0505Z" fill="black"/>
</g>
<defs>
<clipPath id="clip0">
<rect width="89" height="89" fill="white"/>
</clipPath>
</defs>
</svg>
